<?xml version="1.0" encoding="utf-8"?>
<!-- Generator: Adobe Illustrator 19.1.0, SVG Export Plug-In . SVG Version: 6.00 Build 0)  -->
<svg version="1.1" id="Layer_1" xmlns="http://www.w3.org/2000/svg" xmlns:xlink="http://www.w3.org/1999/xlink" x="0px" y="0px"
	 viewBox="0 0 400 400" style="enable-background:new 0 0 400 400;" xml:space="preserve">
<style type="text/css">
	.st0{fill:#FFFFFF;}
</style>
<g>
	<path class="st0" d="M132.8,76l5.1-2.5c1.5-0.7,2.8-0.9,3.9-0.6s2,1,2.5,2.1c0.8,1.6,0.4,3.1-1.2,4.5c1-0.3,1.9-0.3,2.8,0.1
		s1.6,1,2,1.9c0.5,1.1,0.6,2.2,0.1,3.3c-0.5,1.1-1.4,2.1-2.9,2.8l-5.4,2.7L132.8,76z M135.4,76.6l2.3,4.7l3.2-1.6
		c0.9-0.4,1.4-1,1.7-1.6s0.2-1.4-0.1-2.1c-0.4-0.7-0.9-1.2-1.6-1.4c-0.7-0.2-1.5-0.1-2.3,0.4L135.4,76.6z M141,87.9l3.4-1.7
		c0.9-0.4,1.5-1,1.8-1.7s0.2-1.5-0.2-2.2c-0.4-0.8-1-1.3-1.8-1.5c-0.8-0.2-1.6,0-2.6,0.4l-3.2,1.6L141,87.9z"/>
	<path class="st0" d="M152.4,82.5c-1.5-0.8-2.6-2.1-3.2-3.9c-0.7-1.8-0.6-3.5,0-5c0.7-1.5,1.8-2.5,3.5-3.1c1-0.4,2-0.4,2.9-0.2
		s1.7,0.6,2.4,1.2l-0.9-2.4l2-0.7l4.3,11.9l-2,0.7l-0.9-2.4c-0.1,0.9-0.5,1.8-1,2.5s-1.4,1.3-2.4,1.7
		C155.5,83.4,153.9,83.3,152.4,82.5z M159.2,78.7c0.5-1.1,0.5-2.3,0-3.6c-0.5-1.3-1.3-2.3-2.3-2.8s-2.2-0.6-3.3-0.2
		s-1.9,1.1-2.4,2.2c-0.5,1.1-0.5,2.3,0,3.6c0.5,1.3,1.3,2.3,2.4,2.8c1.1,0.6,2.2,0.6,3.3,0.2C157.9,80.6,158.7,79.8,159.2,78.7z"/>
	<path class="st0" d="M170,65.4c1.7-0.4,3.2-0.1,4.6,0.8s2.3,2.3,2.7,4.2s0.2,3.5-0.6,5c-0.8,1.5-2.1,2.4-3.8,2.8
		c-1,0.2-2,0.2-2.9-0.1c-0.9-0.3-1.6-0.8-2.3-1.6l0.6,2.5l-2,0.5l-3.8-16.6l2-0.5l1.5,6.8c0.2-0.9,0.7-1.7,1.4-2.3
		S169,65.7,170,65.4z M172.1,76.5c1.1-0.3,2-0.9,2.6-2c0.6-1,0.8-2.3,0.5-3.7s-1-2.4-2-3c-1-0.6-2.1-0.8-3.2-0.5s-2,0.9-2.7,1.9
		s-0.8,2.2-0.5,3.6c0.3,1.4,1,2.4,2,3.1C169.9,76.6,171,76.8,172.1,76.5z"/>
	<path class="st0" d="M184.4,75.7L178.1,64l2.3-0.3l5,9.7l2.7-10.6l2.1-0.2l-5.5,19.3l-2.1,0.2L184.4,75.7z"/>
	<path class="st0" d="M200.7,59l5.7,0.2c1.6,0.1,2.9,0.5,3.7,1.3s1.3,1.9,1.2,3.1c-0.1,1.8-1.1,2.9-3.2,3.4c1,0.2,1.8,0.7,2.4,1.5
		s0.9,1.7,0.8,2.6c-0.1,1.2-0.6,2.2-1.5,3s-2.3,1.1-3.8,1l-6-0.2L200.7,59z M202.2,73.3l3.8,0.2c1,0,1.8-0.2,2.4-0.7
		c0.6-0.5,0.9-1.2,0.9-2c0-0.9-0.2-1.6-0.8-2.1c-0.6-0.5-1.4-0.8-2.4-0.9l-3.6-0.2L202.2,73.3z M202.7,60.7l-0.2,5.2l3.5,0.1
		c1,0,1.7-0.2,2.3-0.6c0.6-0.4,0.9-1.1,0.9-1.9c0-0.8-0.2-1.5-0.7-2c-0.5-0.5-1.3-0.8-2.2-0.8L202.7,60.7z"/>
	<path class="st0" d="M220.4,76.6l2.1-12.4l2.1,0.4L222.4,77L220.4,76.6z M225,62.2c-0.3,0.2-0.7,0.3-1.1,0.2s-0.7-0.3-0.9-0.6
		c-0.2-0.3-0.3-0.7-0.2-1.1c0.1-0.4,0.3-0.7,0.6-0.9c0.3-0.2,0.7-0.3,1.1-0.2c0.4,0.1,0.7,0.3,0.9,0.6s0.3,0.7,0.2,1.1
		C225.5,61.6,225.3,61.9,225,62.2z"/>
	<path class="st0" d="M227.3,68.6c0.3-1,0.9-1.8,1.9-2.3c1-0.5,2.2-0.6,3.6-0.2c1.4,0.3,2.3,0.9,3,1.8s0.8,1.9,0.6,3.2l-2.1-0.5
		c0.1-0.7,0-1.3-0.3-1.8s-0.9-0.9-1.6-1.1c-0.8-0.2-1.4-0.2-1.9,0.1c-0.5,0.3-0.9,0.7-1,1.2c-0.1,0.6,0,1.1,0.4,1.5
		c0.4,0.4,1,0.8,1.6,1.1s1.3,0.7,2,1c0.7,0.4,1.2,0.9,1.6,1.5c0.4,0.6,0.4,1.4,0.2,2.4c-0.2,0.9-0.9,1.6-1.9,2.1s-2.2,0.5-3.6,0.2
		c-1.4-0.3-2.4-0.9-3-1.8s-0.9-1.9-0.7-3.2l2.1,0.5c-0.1,0.7,0,1.3,0.3,1.8c0.4,0.5,0.9,0.9,1.7,1.1c0.8,0.2,1.5,0.2,2-0.1
		c0.5-0.2,0.9-0.6,1-1.1c0.1-0.5,0.1-1-0.2-1.4c-0.3-0.4-0.7-0.7-1.2-1s-1.1-0.5-1.6-0.9c-0.6-0.3-1.1-0.6-1.6-1s-0.9-0.8-1.1-1.3
		C227.2,70,227.1,69.3,227.3,68.6z"/>
	<path class="st0" d="M244.8,81.4c-0.6-1.6-0.5-3.3,0.3-5c0.8-1.8,1.9-3,3.4-3.6c1.5-0.6,3.1-0.6,4.7,0c1,0.4,1.8,1,2.3,1.8
		c0.5,0.8,0.8,1.6,0.9,2.5l1-2.3l1.9,0.8l-4.9,11.6l-1.9-0.8l1-2.4c-0.7,0.6-1.5,1-2.5,1.1c-0.9,0.2-1.9,0-2.9-0.4
		C246.4,84.1,245.3,83,244.8,81.4z M252.3,83.3c1.1-0.5,1.9-1.4,2.5-2.7c0.6-1.3,0.6-2.5,0.2-3.6c-0.4-1.1-1.2-1.9-2.3-2.4
		c-1.1-0.5-2.2-0.5-3.3,0c-1.1,0.4-1.9,1.3-2.5,2.6c-0.6,1.3-0.6,2.5-0.2,3.7c0.4,1.1,1.2,1.9,2.3,2.4
		C250.1,83.7,251.2,83.7,252.3,83.3z"/>
	<path class="st0" d="M258.8,89.2c-0.4,0.1-0.7,0.1-1-0.1c-0.3-0.2-0.5-0.4-0.7-0.8c-0.1-0.4-0.1-0.7,0.1-1c0.2-0.3,0.4-0.6,0.8-0.7
		c0.4-0.1,0.7-0.1,1,0.1s0.5,0.4,0.7,0.8c0.1,0.4,0.1,0.7-0.1,1C259.5,88.9,259.2,89.1,258.8,89.2z"/>
	<path class="st0" d="M263.3,91.7c-0.4,0.1-0.7,0.1-1-0.1c-0.3-0.2-0.5-0.5-0.6-0.8s0-0.7,0.1-1s0.5-0.5,0.8-0.6
		c0.4-0.1,0.7-0.1,1,0.1c0.3,0.2,0.5,0.5,0.6,0.8s0.1,0.7-0.1,1C263.9,91.4,263.6,91.6,263.3,91.7z"/>
	<path class="st0" d="M267.6,94.4c-0.4,0.1-0.7,0-1-0.2s-0.5-0.5-0.6-0.8c-0.1-0.4,0-0.7,0.2-1c0.2-0.3,0.5-0.5,0.8-0.6
		c0.4-0.1,0.7,0,1,0.2s0.5,0.5,0.6,0.8c0.1,0.4,0,0.7-0.2,1C268.2,94.1,267.9,94.3,267.6,94.4z"/>
</g>
</svg>
