<?xml version="1.0" encoding="utf-8"?>
<!-- Generator: Adobe Illustrator 19.1.0, SVG Export Plug-In . SVG Version: 6.00 Build 0)  -->
<svg version="1.1" id="Layer_1" xmlns="http://www.w3.org/2000/svg" xmlns:xlink="http://www.w3.org/1999/xlink" x="0px" y="0px"
	 viewBox="0 0 400 400" style="enable-background:new 0 0 400 400;" xml:space="preserve">
<style type="text/css">
	.st0{fill:#FFFFFF;}
</style>
<g>
	<path class="st0" d="M132.8,76l5.1-2.5c1.5-0.7,2.8-0.9,3.9-0.6s2,1,2.5,2.1c0.8,1.6,0.4,3.1-1.2,4.5c1-0.3,1.9-0.3,2.8,0.1
		s1.6,1,2,1.9c0.5,1.1,0.6,2.2,0.1,3.3c-0.5,1.1-1.4,2.1-2.9,2.8l-5.4,2.7L132.8,76z M135.4,76.6l2.3,4.7l3.2-1.6
		c0.9-0.4,1.4-1,1.7-1.6s0.2-1.4-0.1-2.1c-0.4-0.7-0.9-1.2-1.6-1.4c-0.7-0.2-1.5-0.1-2.3,0.4L135.4,76.6z M141,87.9l3.4-1.7
		c0.9-0.4,1.5-1,1.8-1.7s0.2-1.5-0.2-2.2c-0.4-0.8-1-1.3-1.8-1.5c-0.8-0.2-1.6,0-2.6,0.4l-3.2,1.6L141,87.9z"/>
	<path class="st0" d="M152.4,82.5c-1.5-0.8-2.6-2.1-3.2-3.9c-0.7-1.8-0.6-3.5,0-5c0.7-1.5,1.8-2.5,3.5-3.1c1-0.4,2-0.4,2.9-0.2
		s1.7,0.6,2.4,1.2l-0.9-2.4l2-0.7l4.3,11.9l-2,0.7l-0.9-2.4c-0.1,0.9-0.5,1.8-1,2.5s-1.4,1.3-2.4,1.7
		C155.5,83.4,153.9,83.3,152.4,82.5z M159.2,78.7c0.5-1.1,0.5-2.3,0-3.6c-0.5-1.3-1.3-2.3-2.3-2.8s-2.2-0.6-3.3-0.2
		s-1.9,1.1-2.4,2.2c-0.5,1.1-0.5,2.3,0,3.6c0.5,1.3,1.3,2.3,2.4,2.8c1.1,0.6,2.2,0.6,3.3,0.2C157.9,80.6,158.7,79.8,159.2,78.7z"/>
	<path class="st0" d="M170,65.4c1.7-0.4,3.2-0.1,4.6,0.8s2.3,2.3,2.7,4.2s0.2,3.5-0.6,5c-0.8,1.5-2.1,2.4-3.8,2.8
		c-1,0.2-2,0.2-2.9-0.1c-0.9-0.3-1.6-0.8-2.3-1.6l0.6,2.5l-2,0.5l-3.8-16.6l2-0.5l1.5,6.8c0.2-0.9,0.7-1.7,1.4-2.3
		S169,65.7,170,65.4z M172.1,76.5c1.1-0.3,2-0.9,2.6-2c0.6-1,0.8-2.3,0.5-3.7s-1-2.4-2-3c-1-0.6-2.1-0.8-3.2-0.5s-2,0.9-2.7,1.9
		s-0.8,2.2-0.5,3.6c0.3,1.4,1,2.4,2,3.1C169.9,76.6,171,76.8,172.1,76.5z"/>
	<path class="st0" d="M184.4,75.7L178.1,64l2.3-0.3l5,9.7l2.7-10.6l2.1-0.2l-5.5,19.3l-2.1,0.2L184.4,75.7z"/>
	<path class="st0" d="M210.9,75.4l-1.1-3.6l-7.1-0.3l-1.4,3.4l-2.1-0.1l6.6-15.6l2.3,0.1l5,16.2L210.9,75.4z M203.5,69.9l5.9,0.3
		l-2.5-8.4L203.5,69.9z"/>
	<path class="st0" d="M222.1,76.9l2.3-12.4l2.1,0.4l-2.3,12.4L222.1,76.9z M226.9,62.5c-0.3,0.2-0.7,0.3-1.1,0.2
		c-0.4-0.1-0.7-0.3-0.9-0.6c-0.2-0.3-0.3-0.7-0.2-1.1c0.1-0.4,0.3-0.7,0.6-0.9c0.3-0.2,0.7-0.3,1.1-0.2c0.4,0.1,0.7,0.3,0.9,0.6
		c0.2,0.3,0.3,0.7,0.2,1.1S227.2,62.3,226.9,62.5z"/>
	<path class="st0" d="M229.1,69c0.3-1,0.9-1.8,2-2.3c1-0.5,2.2-0.5,3.6-0.2c1.4,0.4,2.3,1,2.9,1.9c0.6,0.9,0.8,1.9,0.5,3.2l-2.1-0.5
		c0.1-0.7,0.1-1.3-0.3-1.8c-0.3-0.5-0.9-0.9-1.6-1.1c-0.8-0.2-1.4-0.2-1.9,0.1c-0.5,0.2-0.9,0.7-1,1.2c-0.1,0.6,0,1.1,0.4,1.5
		c0.4,0.4,1,0.8,1.6,1.1c0.7,0.3,1.3,0.7,2,1c0.7,0.4,1.2,0.9,1.5,1.5s0.4,1.4,0.2,2.4c-0.2,0.9-0.9,1.6-1.9,2
		c-1,0.4-2.2,0.5-3.6,0.1s-2.4-1-3-1.9s-0.9-2-0.6-3.2l2.1,0.5c-0.1,0.7,0,1.3,0.3,1.8s0.9,0.9,1.7,1.1s1.5,0.2,2,0
		c0.5-0.2,0.9-0.6,1-1.1s0.1-1-0.2-1.4s-0.7-0.7-1.2-1c-0.5-0.3-1-0.5-1.6-0.9c-0.6-0.3-1.1-0.7-1.6-1s-0.8-0.8-1.1-1.3
		C229,70.4,229,69.7,229.1,69z"/>
	<path class="st0" d="M246.4,82c-0.6-1.6-0.4-3.3,0.3-5c0.8-1.8,1.9-3,3.5-3.6c1.5-0.6,3.1-0.6,4.7,0.1c1,0.4,1.7,1,2.3,1.8
		c0.5,0.8,0.8,1.6,0.9,2.5l1-2.3l1.9,0.9L255.9,88l-1.9-0.9l1-2.4c-0.7,0.6-1.5,1-2.5,1.1c-0.9,0.1-1.9,0-2.9-0.4
		C248,84.8,247,83.6,246.4,82z M254,84c1.1-0.4,2-1.3,2.5-2.6c0.6-1.3,0.7-2.5,0.2-3.6s-1.2-1.9-2.2-2.4c-1.1-0.5-2.2-0.5-3.3-0.1
		c-1.1,0.4-1.9,1.3-2.5,2.6s-0.7,2.5-0.2,3.7c0.4,1.2,1.2,2,2.2,2.4C251.8,84.4,252.8,84.4,254,84z"/>
	<path class="st0" d="M260.4,90.1c-0.4,0.1-0.7,0.1-1-0.1c-0.3-0.2-0.5-0.4-0.6-0.8s-0.1-0.7,0.1-1c0.2-0.3,0.4-0.5,0.8-0.7
		s0.7-0.1,1,0.1c0.3,0.2,0.5,0.4,0.6,0.8c0.1,0.4,0.1,0.7-0.1,1S260.7,90,260.4,90.1z"/>
	<path class="st0" d="M264.8,92.6c-0.4,0.1-0.7,0-1-0.1s-0.5-0.5-0.6-0.8c-0.1-0.4,0-0.7,0.2-1c0.2-0.3,0.5-0.5,0.8-0.6
		c0.4-0.1,0.7,0,1,0.1s0.5,0.5,0.6,0.8c0.1,0.4,0,0.7-0.2,1C265.4,92.3,265.1,92.5,264.8,92.6z"/>
	<path class="st0" d="M269,95.3c-0.4,0.1-0.7,0-1-0.2c-0.3-0.2-0.5-0.5-0.6-0.8c-0.1-0.4,0-0.7,0.2-1s0.5-0.5,0.8-0.6
		c0.4-0.1,0.7,0,1,0.2s0.5,0.5,0.6,0.8c0.1,0.4,0,0.7-0.2,1C269.7,95,269.4,95.2,269,95.3z"/>
</g>
</svg>
